<svg height="111" viewBox="0 0 307 111" width="307" xmlns="http://www.w3.org/2000/svg"><g fill="none" fill-rule="evenodd" transform="translate(-617.1387 -236.56)"><g><path d="m661.445 236.596c-10.439 1.255-18.012 5.356-23.879 11.715-5.406 5.857-10.395 14.986-10.389 24.118.003 2.95 1.102 3.407.318 6.202-.68 2.429-3.164 4.026-5.181 5.857-1.071.973-5.213 4.19-5.17526 6.202.05126 2.655 4.79326 3.105 5.16426 6.202.249 2.066-1.311 1.733-1.38 4.823.28 1.443 1.672 1.773 2.756 2.412-.76.849-1.704 1.512-2.067 2.756 4.282 2.217.686 7.385 3.1 11.37 5.266 8.689 23.682-1.087 29.631 7.974.393.598.74 1.773 1.057 1.773h6.6v-91.44c-1 .013-.439.023-.555.036z" fill="#a3b7b5"/><path d="m666.84 255.596c10.44 1.255 18.153 5.356 24.021 11.715 5.406 5.857 10.467 14.986 10.461 24.118-.004 2.95-1.066 3.407-.283 6.202.681 2.43 3.184 4.026 5.199 5.857 1.071.973 5.223 4.189 5.185259 6.201-.051259 2.655-4.790259 3.105-5.161259 6.202-.249 2.066 1.314 1.733 1.382 4.823-.279 1.443-1.672 1.773-2.755 2.412.76.849 1.707 1.512 2.069 2.756-4.282 2.217-.686 7.385-3.1 11.37-5.267 8.689-23.682-1.087-29.632 7.974-.393.598-.738 1.773-1.055 1.773h-7.171v-91.44c0 .014.726.024.84.037z" fill="#7596aa"/></g><g fill="#666" fill-rule="nonzero"><path d="m723.274 274.227c.188-.688.188-1.104 0-1.252-.187-.144-.542-.218-1.063-.218-.479 0-.995.037-1.547.11s-1.109.183-1.672.328-1.12.333-1.673.561c-.553.231-1.056.501-1.516.813-.438.293-.896.622-1.375.986-.48.366-.913.749-1.299 1.157-.385.406-.703.839-.952 1.298-.252.458-.376.926-.376 1.406 0 .647.198 1.12.595 1.423.396.302.792.452 1.188.452.25 0 .464-.078.64-.235.179-.155.319-.315.423-.483.208-.314.443-.552.704-.718.261-.168.598-.25 1.016-.25.438.02.788.165 1.047.437.261.271.391.635.391 1.093 0 .687-.275 1.25-.828 1.688s-1.277.657-2.173.657c-.562 0-1.108-.094-1.64-.282s-1.008-.462-1.423-.828c-.417-.364-.757-.823-1.017-1.375-.261-.552-.391-1.204-.391-1.953 0-1.001.224-1.991.672-2.971.446-.979 1.193-1.865 2.234-2.656.73-.562 1.559-.99 2.485-1.282.927-.292 1.964-.501 3.11-.625 1.147-.125 2.397-.192 3.752-.203s2.822-.015 4.407-.015h1.861c.655 0 1.312.037 1.969.108.657.075 1.307.215 1.953.424.646.208 1.25.521 1.812.936.647.48 1.146 1.064 1.501 1.751s.53 1.48.53 2.375c0 .75-.16 1.526-.483 2.329s-.812 1.531-1.47 2.189c-.656.655-1.484 1.197-2.483 1.624-1.001.428-2.18.641-3.534.641-.229 0-.5 0-.812 0s-.647-.011-1-.032c-.354-.021-.703-.057-1.047-.109-.345-.052-.641-.119-.891-.202l-1.5 5.563c-.064.271-.141.604-.234 1-.094.396-.267.771-.516 1.127-.252.353-.605.65-1.064.89-.458.239-1.083.349-1.876.327-.501-.02-.858-.045-1.078-.078-.218-.031-.333-.15-.343-.357-.011-.209.066-.553.234-1.034.165-.479.396-1.177.686-2.094zm2.032 7.408c-.043.167-.009.308.095.421.104.116.266.21.484.282.219.074.479.13.781.172s.621.062.953.062c1.168 0 2.094-.267 2.783-.797.688-.53 1.203-1.135 1.547-1.813.344-.676.563-1.322.657-1.937.094-.614.141-1.006.141-1.172 0-.584-.101-1.135-.297-1.657-.2-.52-.47-.98-.814-1.375-.343-.396-.754-.708-1.233-.939-.481-.228-1.002-.342-1.564-.342-.27 0-.494.015-.672.046-.178.032-.316.162-.422.389z"/><path d="m735.21 292.231c-.271 0-.365-.094-.281-.28l1.501-5.064c.125-.439.276-.94.454-1.5.175-.563.343-1.11.499-1.643.157-.53.287-1.009.391-1.438.104-.426.157-.712.157-.858 0-.167-.048-.307-.141-.421-.095-.114-.226-.172-.393-.172-.041 0-.145-.032-.312-.095-.168-.062-.234-.166-.202-.312.03-.146.232-.348.608-.61.375-.26 1.094-.579 2.156-.953.291-.104.542-.125.751-.064.208.064.375.168.499.313.127.146.22.312.281.5.063.188.095.354.095.501 0 .292-.132.797-.39 1.517-.262.718-.579 1.588-.955 2.61l.345.187c.188-.437.446-.969.781-1.594.333-.625.709-1.234 1.125-1.828.417-.595.886-1.1 1.408-1.517.519-.416 1.062-.625 1.625-.625.457 0 .869.156 1.233.468.365.314.548.719.548 1.22 0 .271-.047.532-.141.782s-.214.468-.36.656-.296.334-.452.439c-.157.104-.309.156-.454.156-.437 0-.781-.084-1.031-.25-.125-.084-.249-.165-.375-.25-.125-.083-.292-.125-.499-.125-.251 0-.533.135-.846.406-.311.271-.625.61-.938 1.016-.312.409-.609.852-.891 1.329-.281.479-.507.918-.673 1.312-.166.375-.333.792-.499 1.25-.166.459-.345.981-.532 1.563l-1 3.158c-.062.146-.197.217-.407.217h-2.685z"/><path d="m759.879 278.727c.229 0 .312.126.25.376-.125.333-.298.812-.516 1.438-.219.625-.442 1.271-.673 1.937-.228.667-.44 1.293-.64 1.875-.198.584-.327 1.001-.392 1.251-.042.124-.123.411-.25.859-.125.449-.259.922-.405 1.423-.146.5-.278.964-.391 1.391-.115.428-.173.703-.173.828 0 .25.126.375.376.375.124 0 .265.078.421.235.157.155.197.344.125.562-.071.22-.333.448-.782.687-.446.24-1.215.433-2.297.579-.479.063-.812-.026-1-.265-.188-.24-.281-.483-.281-.734 0-.105.017-.23.048-.377.031-.145.088-.363.172-.655s.202-.677.359-1.157c.156-.479.369-1.104.641-1.876l-.281-.155c-.312.479-.671 1.015-1.079 1.61-.407.592-.87 1.162-1.391 1.702-.521.543-1.095.996-1.72 1.361-.624.364-1.303.546-2.03.546-.211 0-.439-.069-.688-.202-.25-.137-.484-.318-.703-.546-.219-.23-.403-.491-.547-.781-.147-.292-.219-.597-.219-.909 0-.644.104-1.375.312-2.188.208-.812.495-1.636.86-2.469.363-.833.808-1.646 1.328-2.438.521-.791 1.088-1.489 1.704-2.094.614-.604 1.27-1.094 1.969-1.47.698-.375 1.424-.562 2.173-.562.708 0 1.239.119 1.595.358.354.241.635.485.843.735l.501-.907c.146-.229.333-.344.562-.344h2.219zm-10.346 10.348c0 .355.062.6.187.735.126.136.313.202.563.202.208 0 .525-.218.952-.656.428-.437.866-.953 1.313-1.548.448-.593.871-1.191 1.266-1.797.396-.604.666-1.063.813-1.375.188-.416.354-.885.5-1.405.145-.521.219-1.053.219-1.595 0-.355-.152-.678-.453-.969-.303-.292-.609-.437-.923-.437-.77 0-1.552.708-2.343 2.125-.793 1.397-1.341 2.673-1.643 3.829-.301 1.157-.451 2.119-.451 2.891z"/><path d="m768.225 289.514c.127.082.138.198.034.342-.107.168-.31.403-.611.704-.303.303-.677.6-1.125.891-.448.292-.965.548-1.548.765-.584.221-1.209.33-1.876.33-.354 0-.714-.069-1.077-.202-.365-.137-.699-.351-1.002-.641-.302-.292-.551-.651-.75-1.08-.198-.427-.298-.942-.298-1.547 0-.937.193-1.994.579-3.173.386-1.177.928-2.287 1.626-3.329s1.525-1.917 2.484-2.626c.96-.708 2.001-1.062 3.127-1.062.458 0 .844.062 1.155.187.314.125.562.276.751.454.188.177.323.365.407.563.082.197.123.369.123.516 0 .479-.155.901-.467 1.266-.312.364-.626.546-.938.546-.669 0-1.085-.27-1.251-.813-.084-.271-.202-.504-.36-.704-.156-.197-.37-.296-.641-.296-.292 0-.541.181-.75.546-.209.364-.458.881-.75 1.548-.188.479-.359.922-.515 1.329-.158.404-.288.823-.393 1.25s-.187.895-.25 1.405c-.062.511-.094 1.109-.094 1.799 0 .479.067.927.203 1.343.136.418.463.625.985.625.479 0 .974-.129 1.484-.391.512-.259.868-.505 1.079-.735.104-.146.197-.187.281-.125z"/><path d="m774.258 292.544c-.46 0-.927-.083-1.407-.25-.478-.167-.921-.437-1.327-.812-.407-.375-.741-.872-1-1.485-.262-.615-.391-1.36-.391-2.236 0-1.271.19-2.526.577-3.766.387-1.241 1.016-2.339 1.892-3.298.646-.667 1.339-1.135 2.078-1.407.74-.271 1.538-.406 2.393-.406.416 0 .879.062 1.392.187.51.125.989.354 1.437.687.448.335.823.798 1.125 1.392.303.595.454 1.37.454 2.329 0 .458-.047.996-.141 1.609-.095.615-.239 1.256-.438 1.922-.198.667-.465 1.324-.798 1.969-.333.646-.749 1.23-1.25 1.751-.604.667-1.271 1.136-2.002 1.406-.729.272-1.593.408-2.594.408zm-.438-1.813c.23 0 .47-.046.719-.141.251-.094.507-.254.766-.485.262-.228.537-.546.828-.953.293-.407.595-.912.908-1.517.251-.458.489-.954.717-1.485.23-.532.434-1.057.61-1.578.178-.521.318-1.005.423-1.455.104-.446.156-.816.156-1.109 0-.375-.09-.693-.267-.955-.178-.26-.474-.389-.889-.389-.606 0-1.162.286-1.673.859-.512.574-1.121 1.497-1.829 2.768-.543.938-.938 1.855-1.188 2.75-.251.897-.374 1.668-.374 2.314 0 .313.093.621.281.923.188.304.458.453.812.453z"/><path d="m785.855 292.544c-1.209 0-2.049-.333-2.517-.999-.469-.668-.673-1.501-.609-2.501.062-1.001.321-2.088.781-3.267.458-1.178 1-2.267 1.627-3.267.624-1 1.275-1.834 1.952-2.501.677-.665 1.267-1 1.767-1 .208 0 .354.058.437.172.085.115.042.276-.124.485-.209.27-.485.693-.828 1.266-.344.573-.678 1.219-1.001 1.938-.322.718-.599 1.475-.828 2.267-.229.791-.344 1.552-.344 2.281 0 .543.146 1.042.438 1.501.29.458.676.699 1.155.718.418 0 .86-.094 1.329-.281s.922-.552 1.36-1.093c.228-.292.458-.799.687-1.517s.406-1.589.533-2.609c.04-.458.071-1.037.092-1.736.021-.697.115-1.371.282-2.015.104-.397.354-.678.751-.846.395-.167.75-.25 1.062-.25.354 0 .651.083.891.25.239.168.36.375.36.626 0 .438-.141.965-.422 1.579-.281.613-.537 1.338-.766 2.171-.063.272-.136.569-.22.893-.083.322-.161.646-.233.969-.075.323-.131.63-.173.922s-.062.53-.062.719c0 .563.141 1.074.422 1.533.281.458.775.686 1.484.686.499 0 .972-.129 1.422-.39.447-.261.841-.61 1.173-1.048.334-.438.599-.954.797-1.546.198-.595.296-1.226.296-1.892 0-.708-.077-1.334-.234-1.877-.155-.541-.328-.895-.516-1.063-.165-.124-.328-.328-.483-.609-.155-.28-.234-.546-.234-.796 0-.417.141-.776.422-1.079.281-.302.652-.453 1.109-.453.771 0 1.381.28 1.829.843s.672 1.439.672 2.626c0 .583-.068 1.193-.205 1.829-.135.635-.321 1.271-.561 1.908-.241.635-.526 1.26-.86 1.874-.333.615-.688 1.184-1.062 1.705-.292.396-.589.765-.891 1.109-.304.343-.636.646-1.001.906-.365.261-.776.469-1.234.626-.459.155-.98.234-1.562.234-.522 0-.961-.099-1.313-.297-.356-.198-.646-.452-.877-.765-.229-.314-.405-.657-.53-1.032-.127-.376-.22-.739-.281-1.094-.21.292-.484.621-.829.984-.344.366-.734.709-1.173 1.032-.436.323-.928.599-1.469.828-.542.229-1.105.343-1.688.343z"/><path d="m800.858 292.231c-.27 0-.364-.114-.281-.343l2.159-6.002c.186-.499.363-.99.531-1.468.166-.48.312-.922.437-1.328.126-.406.229-.751.312-1.033.083-.281.125-.474.125-.577 0-.333-.136-.501-.406-.501-.062 0-.119-.109-.172-.329-.052-.218-.012-.456.126-.718.134-.26.427-.5.874-.719.449-.218 1.153-.327 2.11-.327.479 0 .808.141.984.421.178.283.267.548.267.797 0 .229-.146.72-.438 1.47-.292.749-.646 1.615-1.062 2.594l.281.218c.229-.332.558-.812.984-1.438.428-.625.932-1.234 1.518-1.828.582-.595 1.223-1.115 1.922-1.563.697-.446 1.432-.671 2.204-.671.333 0 .625.066.874.202.25.136.458.309.626.518.167.208.291.437.375.687.081.25.123.479.123.687 0 .168-.03.386-.093.657-.062.271-.16.631-.296 1.078-.137.448-.324 1.007-.563 1.672-.24.667-.525 1.481-.858 2.44-.376 1.063-.636 1.813-.783 2.25-.146.439-.217.75-.217.938 0 .354.134.532.405.532.063 0 .162.066.298.203.135.136.156.302.062.5-.093.198-.374.411-.844.641-.469.229-1.279.448-2.422.656-.48.084-.81-.015-.984-.297-.177-.282-.268-.579-.268-.892 0-.291.152-.884.454-1.781.302-.896.692-2.032 1.175-3.407.123-.354.258-.74.404-1.158.145-.417.281-.823.407-1.218.124-.397.229-.746.312-1.048s.125-.525.125-.672c0-.458-.208-.688-.624-.688-.189 0-.455.14-.798.422-.345.28-.726.642-1.143 1.078-.416.439-.832.928-1.25 1.469-.416.542-.781 1.062-1.094 1.564-.354.542-.672 1.047-.953 1.517-.281.469-.475.839-.578 1.109l-1.22 3.501c-.041.063-.088.108-.141.141-.053.029-.161.045-.327.045h-2.659z"/><path d="m820.241 290.575c.374 0 .553.104.53.312-.021.208-.182.433-.484.674-.301.238-.73.463-1.28.67-.553.209-1.184.313-1.892.313-.48 0-.804-.099-.969-.297-.168-.198-.252-.41-.252-.641 0-.146.037-.348.111-.608.072-.261.183-.622.329-1.08.144-.457.332-1.021.562-1.687.229-.668.51-1.481.843-2.439l.844-2.469c.146-.417.26-.767.345-1.048.081-.281.125-.517.125-.703 0-.271-.136-.406-.407-.406-.062 0-.155-.032-.281-.095-.124-.062-.229-.149-.312-.265-.085-.115-.119-.245-.109-.39.01-.146.135-.308.376-.485.238-.177.609-.354 1.108-.532.501-.176 1.21-.348 2.126-.515.479-.104.844-.021 1.093.25.252.271.375.562.375.875 0 .355-.088.787-.264 1.297-.177.511-.422 1.224-.735 2.142l-1.688 4.784c-.208.582-.343 1.005-.405 1.266-.063.261-.095.474-.095.639 0 .106.026.204.078.298s.159.14.328.14zm1.655-18.661c.75 0 1.309.171 1.673.514.364.345.548.755.548 1.235 0 .25-.058.497-.171.734-.115.241-.272.459-.47.657-.197.198-.428.36-.689.485-.26.125-.535.187-.826.187-.605 0-1.09-.167-1.454-.5s-.547-.803-.547-1.407c0-.48.187-.917.562-1.313.374-.395.833-.592 1.374-.592z"/><path d="m836.901 278.727c.229 0 .313.126.25.376-.124.333-.297.812-.515 1.438-.219.625-.444 1.271-.672 1.937-.23.667-.443 1.293-.642 1.875-.197.584-.328 1.001-.39 1.251-.042.124-.126.411-.251.859-.126.449-.26.922-.407 1.423-.146.5-.276.964-.39 1.391-.115.428-.173.703-.173.828 0 .25.126.375.377.375.124 0 .265.078.421.235.156.155.197.344.125.562-.073.22-.335.448-.781.687-.448.24-1.216.433-2.297.579-.48.063-.812-.026-1.002-.265-.187-.24-.281-.483-.281-.734 0-.105.016-.23.047-.377.03-.145.088-.363.173-.655.083-.292.203-.677.359-1.157.155-.479.37-1.104.64-1.876l-.281-.155c-.312.479-.672 1.015-1.077 1.61-.407.592-.871 1.162-1.392 1.702-.521.543-1.093.996-1.718 1.361-.625.364-1.306.546-2.033.546-.209 0-.437-.069-.688-.202-.251-.137-.484-.318-.703-.546-.219-.23-.4-.491-.546-.781-.146-.292-.22-.597-.22-.909 0-.644.104-1.375.312-2.188.208-.812.495-1.636.859-2.469.365-.833.809-1.646 1.33-2.438.52-.791 1.088-1.489 1.704-2.094.612-.604 1.271-1.094 1.967-1.47.7-.375 1.423-.562 2.174-.562.708 0 1.238.119 1.596.358.354.241.635.485.844.735l.499-.907c.146-.229.332-.344.562-.344h2.22zm-10.346 10.348c0 .355.064.6.188.735.125.136.312.202.562.202.209 0 .528-.218.953-.656.428-.437.865-.953 1.312-1.548.449-.593.871-1.191 1.267-1.797.396-.604.667-1.063.812-1.375.189-.416.355-.885.501-1.405.146-.521.219-1.053.219-1.595 0-.355-.151-.678-.452-.969-.303-.292-.608-.437-.923-.437-.771 0-1.554.708-2.345 2.125-.791 1.397-1.341 2.673-1.642 3.829-.301 1.157-.452 2.119-.452 2.891z"/><path d="m888.292 271.288c-.374 1.229-.786 2.625-1.233 4.19-.448 1.562-.901 3.156-1.36 4.78-.457 1.626-.906 3.216-1.345 4.769-.438 1.552-.812 2.955-1.125 4.204-.208.771-.093 1.156.344 1.156.708 0 1.188.105 1.438.313s.246.448-.016.718c-.261.271-.786.532-1.578.781-.792.251-1.888.417-3.282.5-.5.042-.871-.057-1.109-.296-.24-.239-.373-.453-.393-.64-.042-.292-.017-.651.078-1.079.096-.426.214-.911.361-1.454.687-2.583 1.384-5.142 2.094-7.674.709-2.532 1.428-5.038 2.156-7.518.084-.271.09-.422.017-.453-.073-.032-.163.005-.267.108-.021.021-.209.287-.562.797-.354.511-.817 1.168-1.391 1.97-.574.803-1.22 1.719-1.938 2.75-.718 1.03-1.453 2.089-2.203 3.173-.751 1.084-1.491 2.154-2.22 3.205-.729 1.053-1.392 1.996-1.984 2.829-.596.834-1.085 1.533-1.47 2.095-.387.563-.61.885-.673.969-.354.5-.719.749-1.094.749-.333 0-.53-.239-.594-.718-.021-.083-.067-.546-.142-1.391-.072-.844-.165-1.881-.28-3.111-.116-1.229-.234-2.552-.359-3.97-.125-1.417-.235-2.74-.33-3.97-.093-1.229-.177-2.261-.248-3.095-.074-.833-.109-1.292-.109-1.375 0-.228-.053-.344-.156-.344-.104 0-.199.116-.282.344-.146.437-.334 1.022-.562 1.75-.23.73-.507 1.553-.828 2.469-.323.918-.693 1.892-1.109 2.924-.418 1.031-.876 2.067-1.375 3.109-.5 1.044-1.049 2.06-1.643 3.049-.593.99-1.224 1.891-1.891 2.704-.647.791-1.344 1.526-2.094 2.205-.751.676-1.563 1.259-2.439 1.75-.876.488-1.819.876-2.828 1.157-1.012.282-2.11.422-3.298.422-.854 0-1.717-.162-2.58-.484-.865-.323-1.646-.808-2.344-1.455-.7-.646-1.267-1.448-1.705-2.405-.436-.96-.655-2.084-.655-3.378 0-1.02.163-1.932.483-2.734.323-.803.746-1.485 1.268-2.049.52-.562 1.115-.988 1.781-1.281.668-.292 1.345-.437 2.031-.437.73 0 1.324.208 1.783.624.457.418.688.969.688 1.658 0 .417-.147.786-.438 1.11-.293.323-.741.484-1.346.484-.479 0-.826-.13-1.046-.391-.218-.261-.414-.497-.579-.704-.229-.292-.501-.437-.812-.437-.292 0-.591.083-.892.25-.301.165-.573.42-.812.765-.24.343-.438.765-.594 1.265-.157.5-.235 1.075-.235 1.721 0 .603.141 1.209.422 1.812.281.604.688 1.147 1.22 1.627.531.478 1.177.864 1.938 1.156.76.292 1.63.438 2.61.438 1.835 0 3.543-.391 5.125-1.172 1.585-.781 3.096-1.954 4.533-3.517.813-.875 1.584-1.942 2.313-3.203.729-1.262 1.392-2.538 1.984-3.83.595-1.292 1.111-2.532 1.549-3.72s.791-2.157 1.062-2.908c.166-.479.213-.775.141-.891-.072-.113-.287-.17-.641-.17-.48 0-1.012-.011-1.595-.032-.584-.02-1.188-.02-1.812 0-.627.021-1.262.062-1.907.125-.646.062-1.282.167-1.905.311-.856.23-1.561.506-2.111.829-.553.323-.83.692-.83 1.109 0 .188.059.406.173.657.115.25.454.417 1.017.501.625.105 1.079.301 1.36.594.28.292.421.583.421.875 0 .687-.203 1.177-.609 1.47-.406.291-.797.437-1.172.437-.439 0-.812-.125-1.124-.374-.314-.25-.574-.563-.784-.939-.207-.375-.359-.782-.452-1.219-.094-.438-.142-.854-.142-1.25 0-.812.199-1.568.594-2.267.396-.698.958-1.297 1.689-1.797.666-.459 1.447-.803 2.345-1.032.896-.229 1.933-.39 3.109-.485 1.178-.093 2.521-.133 4.032-.123s3.225.015 5.142.015c.355 0 .592.068.705.203.114.136.173.318.173.548 0 .124.02.526.062 1.203.039.677.087 1.491.141 2.438.051.949.112 1.968.187 3.063.072 1.094.141 2.131.203 3.111.062.979.113 1.824.156 2.531.042.71.072 1.158.094 1.344.02.23.094.357.218.376.125.021.252-.063.377-.25l9.845-14.099c.127-.166.267-.286.424-.36.155-.071.422-.108.797-.108z"/><path d="m888.892 293.076c-.083-2.459-.261-4.523-.529-6.189-.272-1.668-.544-3.028-.814-4.081-.271-1.051-.505-1.849-.704-2.39-.197-.542-.27-.928-.219-1.158.053-.228.277-.348.673-.359.396-.012 1.052-.015 1.97-.015.31 0 .587.057.828.171.237.115.441.312.609.594.165.281.307.662.422 1.14.114.48.191 1.085.234 1.814.062.896.109 1.78.141 2.657.032.875.052 1.694.062 2.453.009.761.009 1.434 0 2.018-.011.582-.027 1.021-.047 1.311l.374.033c.085-.167.244-.495.485-.986.24-.489.495-1.035.765-1.641.272-.604.522-1.208.752-1.813.229-.604.384-1.094.469-1.471.042-.228.094-.52.156-.874.062-.355.094-.76.094-1.219 0-.417-.094-.865-.281-1.344s-.282-.928-.282-1.344c0-.355.136-.693.407-1.017.271-.323.698-.484 1.281-.484.73 0 1.225.219 1.486.655.26.438.39 1.022.39 1.75 0 .292-.062.674-.188 1.143-.125.468-.298.99-.517 1.563-.217.574-.463 1.167-.733 1.782s-.552 1.191-.844 1.734c-.417.791-.933 1.693-1.548 2.705-.614 1.01-1.271 2.031-1.969 3.062-.699 1.032-1.418 2.026-2.158 2.985-.738.958-1.441 1.77-2.108 2.439-.208.207-.475.473-.798.797-.322.323-.688.63-1.094.924-.406.29-.849.546-1.328.764-.48.22-.98.328-1.501.328-.729 0-1.267-.161-1.61-.484-.344-.322-.516-.713-.516-1.171 0-.562.168-1.021.5-1.377.334-.355.687-.532 1.064-.532.27 0 .484.053.641.158.154.104.307.238.452.407.146.144.308.265.485.357.176.094.35.143.515.143.167 0 .345-.028.531-.079.188-.052.428-.172.72-.359.334-.209.662-.459.984-.751.322-.291.609-.583.859-.875s.469-.569.657-.829.323-.452.405-.577c.23-.314.365-.668.408-1.063.042-.394.03-.863-.031-1.405z"/><path d="m900.14 292.544c-1.125 0-1.964-.177-2.517-.53-.552-.355-.828-.804-.828-1.346 0-.478.131-.855.392-1.125.259-.27.577-.406.953-.406.416 0 .756.13 1.016.39.26.262.485.621.671 1.08.085.229.204.417.36.562.157.147.317.22.484.22.959 0 1.449-.698 1.471-2.095 0-.249-.036-.479-.111-.688-.072-.208-.176-.422-.312-.641-.135-.217-.292-.458-.47-.719-.174-.261-.368-.566-.577-.921-.229-.377-.427-.705-.594-.986-.166-.281-.303-.536-.407-.765s-.181-.465-.234-.703c-.052-.241-.077-.506-.077-.797 0-.543.109-1.063.327-1.563.219-.5.547-.948.985-1.344s.979-.708 1.625-.939c.646-.229 1.397-.342 2.253-.342.312 0 .629.03.952.092.323.064.609.168.86.313.25.146.458.344.624.594.167.25.25.553.25.905 0 .48-.118.862-.358 1.142-.241.282-.59.422-1.047.422-.335 0-.632-.094-.892-.281-.261-.188-.422-.532-.483-1.032-.044-.229-.122-.441-.235-.64-.115-.198-.287-.298-.517-.298-.312 0-.577.094-.797.283-.22.187-.329.666-.329 1.436 0 .292.059.585.173.876s.261.574.438.844c.175.271.358.527.547.766.187.24.343.433.47.579.498.605.815 1.136.952 1.594.135.459.203.99.203 1.594 0 .625-.115 1.208-.343 1.75-.231.542-.562 1.017-1.001 1.423-.438.405-.985.723-1.641.952-.658.23-1.403.344-2.236.344z"/><path d="m917.331 271.039c.293 0 .367.187.22.562l-6.251 17.538c-.168.438-.23.771-.188.999.041.229.208.344.5.344.083 0 .194.039.328.11.135.073.244.167.328.28.082.116.104.247.062.392-.041.146-.187.298-.437.454-.251.157-.631.307-1.143.453-.51.146-1.214.271-2.108.375-.168.021-.328-.01-.485-.094-.156-.083-.296-.193-.422-.328-.124-.136-.229-.285-.312-.454-.081-.166-.124-.312-.124-.437s.031-.307.094-.546c.062-.24.14-.5.234-.783.093-.281.187-.557.28-.828s.183-.521.267-.751l5.971-17.285h3.186z"/><path d="m919.333 290.575c.375 0 .552.104.531.312s-.184.433-.483.674c-.303.238-.731.463-1.282.67-.554.209-1.183.313-1.892.313-.479 0-.803-.099-.97-.297-.166-.198-.251-.41-.251-.641 0-.146.038-.348.111-.608.072-.261.181-.622.327-1.08.146-.457.334-1.021.562-1.687.23-.668.512-1.481.845-2.439l.844-2.469c.146-.417.262-.767.345-1.048s.125-.517.125-.703c0-.271-.137-.406-.407-.406-.062 0-.157-.032-.281-.095-.126-.062-.229-.149-.312-.265-.084-.115-.12-.245-.109-.39.011-.146.137-.308.375-.485.24-.177.61-.354 1.109-.532.502-.176 1.208-.348 2.126-.515.479-.104.845-.021 1.095.25.249.271.375.562.375.875 0 .355-.089.787-.266 1.297-.178.511-.423 1.224-.734 2.142l-1.688 4.784c-.208.582-.344 1.005-.405 1.266-.062.261-.095.474-.095.639 0 .106.025.204.079.298.05.094.158.14.326.14zm1.657-18.661c.75 0 1.307.171 1.673.514.362.345.546.755.546 1.235 0 .25-.057.497-.173.734-.112.241-.271.459-.469.657-.196.198-.427.36-.686.485-.262.125-.538.187-.829.187-.605 0-1.09-.167-1.453-.5-.365-.333-.548-.803-.548-1.407 0-.48.188-.917.562-1.313.376-.395.834-.592 1.377-.592z"/></g></g></svg>